<svg width="785" height="637" viewBox="0 0 785 637" fill="none" xmlns="http://www.w3.org/2000/svg">
<path d="M719.174 187.278C700.894 168.551 682.169 149.377 660.768 134.217C653.635 129.312 637.584 114.598 628.667 119.948C626.884 120.84 624.655 122.178 622.871 123.07C598.796 96.7619 565.803 54.848 530.136 45.9301C506.506 39.6877 489.564 52.1726 470.838 65.5494C467.271 68.2248 463.705 70.4542 460.138 73.1296C458.8 71.346 457.017 69.5624 455.679 68.2248C437.4 49.4973 418.674 30.3239 397.274 15.1636C389.694 9.81287 374.981 -3.56391 365.173 0.895016C327.276 18.7307 298.742 47.2678 270.654 77.5885C241.228 108.801 211.802 140.459 182.376 171.672C141.358 189.953 100.787 209.127 61.9981 232.313C54.4187 236.772 67.3482 256.837 82.9528 277.348L66.4565 295.184C40.5975 322.829 7.15906 349.137 0.91723 387.93C0.91723 390.159 0.025519 392.389 0.025519 394.618C-0.866172 406.211 21.872 432.965 27.2221 439.653C41.935 458.381 57.9854 475.77 74.4817 492.714C85.182 503.416 136.9 561.382 154.734 549.789C170.784 539.087 186.835 528.386 202.885 517.684C212.694 529.723 223.394 541.763 233.649 552.91C238.999 558.706 318.359 633.616 324.601 620.24C330.843 606.417 336.639 592.594 342.881 579.217C358.039 594.378 373.198 609.092 390.14 621.577C396.828 626.482 413.324 641.196 422.241 635.846C490.01 594.378 544.403 536.858 598.35 479.338C659.877 413.791 721.403 348.245 782.93 282.253C797.643 266.201 729.428 198.425 720.066 188.17L719.174 187.278Z" fill="#B1BFAD"/>
</svg>
