<svg width="846" height="916" viewBox="0 0 846 916" fill="none" xmlns="http://www.w3.org/2000/svg">
<mask id="mask0_230_794" style="mask-type:alpha" maskUnits="userSpaceOnUse" x="72" y="31" width="691" height="849">
<path d="M242.368 798.599C223.467 776.701 204.915 754.205 190.254 729.169C185.525 720.782 171.408 701.683 178.071 692.338C179.593 690.419 180.991 688.026 182.04 686.231C155.691 657.166 113.649 616.507 106.777 576.764C102.313 550.069 118.031 532.778 134.324 513.815C137.369 509.978 140.537 506.614 143.581 502.777C142.137 501.129 140.095 499.131 138.65 497.483C119.749 475.585 101.197 453.088 86.5364 428.052C81.2094 419.316 67.9382 401.515 74.3531 391.221C97.8924 351.615 132.016 323.42 167.685 295.327C205.125 266.264 242.565 237.2 279.531 208.261C303.746 165.437 329.032 122.84 358.505 82.6916C364.12 75.1406 384.97 90.9549 405.269 110.46L426.346 94.2975C459.196 68.9698 491.231 34.7364 534.556 31.9951C534.556 31.9951 538.944 31.3519 541.561 31.6793C554.274 31.8943 581.321 59.7637 588.046 66.1074C606.901 83.9647 624.583 103.143 641.092 123.641C652.049 136.475 709.902 198.828 695.03 217.418C681.68 234.089 668.206 250.286 654.856 266.957C667.11 278.945 679.015 291.53 689.972 304.365C695.75 310.957 769.529 405.107 754.269 410.626C738.536 416.269 723.027 420.84 707.294 426.483C722.11 444.385 736.577 462.886 748.8 482.481C753.405 490.394 768.12 509.842 760.983 519.312C708.927 589.19 640.532 643.085 571.889 696.032C493.592 756.574 415.77 816.992 337.473 877.535C318.517 892.129 251.058 810.508 241.421 798.847L242.368 798.599Z" fill="black"/>
</mask>
<g mask="url(#mask0_230_794)">
<rect x="-65.4473" y="-75.0288" width="975.25" height="975.25" fill="#B1BFAD"/>
</g>
</svg>
