<svg width="99" height="18" viewBox="0 0 99 18" fill="none" xmlns="http://www.w3.org/2000/svg">
<path d="M18.0459 0.342393V0.831522C17.6621 1.01087 17.2449 1.36957 16.7944 1.90761C16.3439 2.42935 15.9267 3.21196 15.543 4.25543L10.6623 17.6576C10.4621 17.6413 10.2452 17.6332 10.0116 17.6332C9.79466 17.6168 9.5694 17.6087 9.33579 17.6087C9.11888 17.6087 8.89362 17.6168 8.66001 17.6332C8.44309 17.6332 8.23452 17.6413 8.03429 17.6576L1.47671 2.39674C1.2431 1.82609 0.992814 1.42663 0.725839 1.19837C0.47555 0.970109 0.233603 0.847827 0 0.831522V0.342393C0.600694 0.358697 1.3015 0.375001 2.10243 0.391305C2.92004 0.407609 3.73765 0.415761 4.55527 0.415761C5.40625 0.415761 6.20718 0.407609 6.95804 0.391305C7.70891 0.375001 8.30961 0.358697 8.76013 0.342393V0.831522C8.24286 0.847827 7.83406 0.904892 7.53371 1.00272C7.23336 1.10054 7.05816 1.2962 7.0081 1.58968C6.97473 1.86685 7.07485 2.29891 7.30845 2.88587L11.8137 13.7201L11.213 14.4783L14.0663 6.65217C14.5835 5.21739 14.8588 4.08424 14.8922 3.25272C14.9256 2.40489 14.7587 1.79348 14.3916 1.41848C14.0245 1.04348 13.5073 0.847827 12.8398 0.831522V0.342393C13.4739 0.358697 14.0329 0.375001 14.5168 0.391305C15.0174 0.407609 15.5513 0.415761 16.1186 0.415761C16.4524 0.415761 16.7944 0.407609 17.1448 0.391305C17.4952 0.375001 17.7956 0.358697 18.0459 0.342393Z" fill="white"/>
<path d="M26.6324 0C28.5179 0 30.1698 0.350544 31.5881 1.05163C33.0064 1.75272 34.1077 2.76359 34.8919 4.08424C35.6761 5.38859 36.0683 6.97826 36.0683 8.85326C36.0683 10.6793 35.6678 12.2772 34.8669 13.6467C34.0659 15.0163 32.948 16.0842 31.513 16.8505C30.0947 17.6168 28.4595 18 26.6073 18C24.7218 18 23.0699 17.6495 21.6516 16.9484C20.2333 16.2473 19.132 15.2364 18.3478 13.9158C17.5635 12.5951 17.1714 11.0054 17.1714 9.14674C17.1714 7.32065 17.5719 5.72283 18.3728 4.35326C19.1904 2.9837 20.3084 1.91576 21.7267 1.14946C23.145 0.383152 24.7802 0 26.6324 0ZM26.5322 0.440217C25.6979 0.440217 24.9721 0.807065 24.3547 1.54076C23.7373 2.27446 23.2618 3.28533 22.9281 4.57337C22.5943 5.86141 22.4275 7.35326 22.4275 9.04891C22.4275 10.7772 22.6194 12.2853 23.0032 13.5734C23.3869 14.8451 23.9042 15.8315 24.5549 16.5326C25.2057 17.2174 25.9232 17.5598 26.7074 17.5598C27.5417 17.5598 28.2676 17.1929 28.885 16.4592C29.5023 15.7255 29.9779 14.7147 30.3116 13.4266C30.6453 12.1223 30.8122 10.6304 30.8122 8.95109C30.8122 7.20652 30.6203 5.69837 30.2365 4.42663C29.8527 3.15489 29.3355 2.17663 28.6847 1.49185C28.034 0.790761 27.3165 0.440217 26.5322 0.440217Z" fill="white"/>
<path d="M51.3584 0.317935V0.807067C50.9746 0.986414 50.5658 1.32881 50.132 1.83424C49.6981 2.32337 49.2226 3.06522 48.7053 4.05978L44.2001 12.7908H42.5232L36.6664 2.20109C36.3828 1.67935 36.1158 1.32065 35.8655 1.125C35.6152 0.929348 35.3983 0.831522 35.2147 0.831522V0.317935C35.732 0.366848 36.266 0.407609 36.8166 0.440217C37.3839 0.456522 38.0013 0.464675 38.6687 0.464675C39.5197 0.464675 40.4374 0.44837 41.4219 0.415761C42.4231 0.383153 43.3408 0.350544 44.1751 0.317935V0.831522C43.7579 0.831522 43.3742 0.847827 43.0238 0.880435C42.6734 0.913044 42.4231 0.994566 42.2729 1.125C42.1227 1.23913 42.1227 1.45109 42.2729 1.76087L46.0523 8.85326L44.8759 10.3696L46.9783 6.26087C47.6791 4.90761 48.0629 3.83967 48.1297 3.05707C48.2131 2.27446 48.0713 1.71196 47.7042 1.36957C47.3371 1.01087 46.8198 0.823371 46.1524 0.807067V0.317935C46.7864 0.33424 47.3454 0.350545 47.8293 0.366849C48.3299 0.383153 48.8638 0.391305 49.4312 0.391305C49.7649 0.391305 50.107 0.383153 50.4574 0.366849C50.8078 0.350545 51.1081 0.33424 51.3584 0.317935ZM46.3776 8.0462V15.0652C46.3776 15.6522 46.4194 16.0924 46.5028 16.3859C46.6029 16.6793 46.7781 16.875 47.0284 16.9728C47.2787 17.0707 47.6541 17.1359 48.1547 17.1685V17.6576C47.6708 17.625 47.0284 17.6087 46.2275 17.6087C45.4265 17.5924 44.634 17.5842 43.8497 17.5842C42.9987 17.5842 42.1728 17.5924 41.3719 17.6087C40.5876 17.6087 39.9702 17.625 39.5197 17.6576V17.1685C40.037 17.1359 40.4208 17.0707 40.671 16.9728C40.9213 16.875 41.0882 16.6793 41.1716 16.3859C41.255 16.0924 41.2968 15.6522 41.2968 15.0652V10.0516L44.0249 11.5679L46.3776 8.0462Z" fill="white"/>
<path d="M59.2672 0.342393L65.3242 15.6033C65.5578 16.1576 65.808 16.5571 66.075 16.8016C66.342 17.0299 66.5839 17.1522 66.8009 17.1685V17.6576C66.2002 17.625 65.4994 17.6087 64.6984 17.6087C63.8975 17.5924 63.0799 17.5842 62.2456 17.5842C61.3946 17.5842 60.5937 17.5924 59.8428 17.6087C59.0919 17.6087 58.4913 17.625 58.0407 17.6576V17.1685C58.8917 17.1359 59.4257 16.9973 59.6426 16.7527C59.8762 16.4918 59.8261 15.9457 59.4924 15.1141L55.4878 4.27989L55.9884 3.42391L52.5344 12.2038C52.1172 13.2636 51.8586 14.1196 51.7585 14.7717C51.675 15.4076 51.7168 15.8967 51.8836 16.2391C52.0505 16.5815 52.3174 16.8179 52.6845 16.9484C53.0516 17.0788 53.4855 17.1522 53.986 17.1685V17.6576C53.3687 17.625 52.8097 17.6087 52.3091 17.6087C51.8252 17.5924 51.2913 17.5842 50.7073 17.5842C50.3902 17.5842 50.0482 17.5924 49.6811 17.6087C49.3307 17.6087 49.0303 17.625 48.78 17.6576V17.1685C49.1638 17.1033 49.5392 16.8668 49.9063 16.4592C50.2901 16.0353 50.6822 15.3179 51.0827 14.3071L56.6391 0.342393C57.0396 0.375001 57.4734 0.391305 57.9406 0.391305C58.4245 0.391305 58.8667 0.375001 59.2672 0.342393ZM60.1432 10.6141V11.1033H52.6845L52.9348 10.6141H60.1432Z" fill="white"/>
<path d="M76.2522 0C77.4202 0 78.3797 0.154892 79.1305 0.464675C79.8814 0.774458 80.5405 1.14946 81.1078 1.58968C81.2914 1.73641 81.4582 1.80978 81.6084 1.80978C81.9254 1.80978 82.134 1.32065 82.2341 0.342393H82.8098C82.7764 0.994566 82.7514 1.79348 82.7347 2.73913C82.718 3.66848 82.7097 4.90761 82.7097 6.45652H82.134C82.0172 5.28261 81.8086 4.30435 81.5083 3.52174C81.2246 2.72283 80.6657 2.0462 79.8314 1.49185C79.481 1.26359 79.0721 1.08424 78.6049 0.953805C78.1377 0.82337 77.6872 0.758152 77.2534 0.758152C76.2856 0.758152 75.4847 1.01902 74.8506 1.54076C74.2165 2.0462 73.7076 2.71467 73.3238 3.5462C72.9567 4.36141 72.6898 5.25815 72.5229 6.23641C72.3727 7.19837 72.2977 8.13587 72.2977 9.04891C72.2977 11.9837 72.6647 14.1277 73.3989 15.481C74.1331 16.8342 75.1092 17.5109 76.3273 17.5109C76.5943 17.5109 76.8279 17.4864 77.0281 17.4375C77.2283 17.3886 77.4035 17.3152 77.5537 17.2174C77.7373 17.087 77.8708 16.9239 77.9542 16.7283C78.0376 16.5326 78.0793 16.288 78.0793 15.9946V13.5489C78.0793 12.75 78.0126 12.1549 77.8791 11.7636C77.7623 11.3723 77.5204 11.1033 77.1533 10.9565C76.7862 10.8098 76.2522 10.7283 75.5514 10.712V10.2228C75.9352 10.2391 76.4024 10.2554 76.953 10.2717C77.5037 10.2717 78.0793 10.2799 78.68 10.2962C79.2807 10.2962 79.8314 10.2962 80.3319 10.2962C81.1329 10.2962 81.867 10.288 82.5345 10.2717C83.2186 10.2554 83.7692 10.2391 84.1864 10.2228V10.712C83.9027 10.7283 83.6858 10.7853 83.5356 10.8832C83.3855 10.981 83.2854 11.1766 83.2353 11.4701C83.1852 11.7636 83.1602 12.212 83.1602 12.8152V17.6576H82.6596C82.6429 17.3804 82.5762 17.0788 82.4594 16.7527C82.3426 16.4266 82.1507 16.2636 81.8837 16.2636C81.7502 16.2636 81.5584 16.2962 81.3081 16.3614C81.0745 16.4266 80.699 16.5815 80.1818 16.8261C79.531 17.1359 78.8385 17.413 78.1044 17.6576C77.3869 17.8859 76.6694 18 75.9519 18C73.8661 18 72.1224 17.6495 70.7208 16.9484C69.3192 16.2473 68.268 15.2364 67.5672 13.9158C66.8831 12.5951 66.541 11.0054 66.541 9.14674C66.541 7.32065 66.9498 5.72283 67.7674 4.35326C68.6017 2.9837 69.7447 1.91576 71.1964 1.14946C72.6647 0.383152 74.35 0 76.2522 0Z" fill="white"/>
<path d="M98.4994 0.342393C98.4327 1.15761 98.3826 1.94837 98.3492 2.71468C98.3326 3.46468 98.3242 4.04348 98.3242 4.45109C98.3242 4.79348 98.3326 5.11957 98.3492 5.42935C98.3659 5.73913 98.3826 6 98.3993 6.21196H97.8236C97.6234 4.8587 97.2897 3.79891 96.8225 3.03261C96.3553 2.25 95.8046 1.7038 95.1706 1.39402C94.5532 1.06793 93.9024 0.904891 93.2183 0.904891H92.8929C92.4591 0.904891 92.1337 0.945653 91.9168 1.02718C91.6999 1.09239 91.5497 1.23098 91.4663 1.44294C91.3995 1.65489 91.3662 1.98913 91.3662 2.44565V15.5543C91.3662 15.9946 91.3995 16.3288 91.4663 16.5571C91.5497 16.769 91.6999 16.9158 91.9168 16.9973C92.1337 17.0625 92.4591 17.0951 92.8929 17.0951H93.7189C94.2695 17.0951 94.8452 16.9239 95.4459 16.5815C96.0633 16.2228 96.6306 15.6196 97.1479 14.7717C97.6651 13.9239 98.0572 12.7663 98.3242 11.2989H98.8999C98.8498 11.8859 98.8248 12.6359 98.8248 13.5489C98.8248 13.9565 98.8331 14.5435 98.8498 15.3098C98.8665 16.0598 98.9166 16.8424 99 17.6576C98.149 17.625 97.1896 17.6087 96.1217 17.6087C95.0538 17.5924 94.1027 17.5842 93.2684 17.5842C92.8179 17.5842 92.2422 17.5842 91.5414 17.5842C90.8573 17.5842 90.1064 17.5924 89.2888 17.6087C88.4878 17.6087 87.6702 17.6168 86.8359 17.6332C86.0183 17.6332 85.2424 17.6413 84.5082 17.6576V17.1685C85.0255 17.1359 85.4093 17.0707 85.6596 16.9728C85.9099 16.875 86.0767 16.6793 86.1602 16.3859C86.2436 16.0924 86.2853 15.6522 86.2853 15.0652V2.93478C86.2853 2.33152 86.2436 1.8913 86.1602 1.61413C86.0767 1.32065 85.9015 1.125 85.6346 1.02718C85.3843 0.913044 85.0088 0.847827 84.5082 0.831522V0.342393C85.2424 0.358697 86.0183 0.375001 86.8359 0.391305C87.6702 0.391305 88.4878 0.399457 89.2888 0.415761C90.1064 0.415761 90.8573 0.415761 91.5414 0.415761C92.2422 0.415761 92.8179 0.415761 93.2684 0.415761C94.0359 0.415761 94.9036 0.415761 95.8714 0.415761C96.8559 0.399457 97.7319 0.375001 98.4994 0.342393ZM94.8702 8.70652C94.8702 8.70652 94.8702 8.78804 94.8702 8.95109C94.8702 9.11413 94.8702 9.19565 94.8702 9.19565H90.6153C90.6153 9.19565 90.6153 9.11413 90.6153 8.95109C90.6153 8.78804 90.6153 8.70652 90.6153 8.70652H94.8702ZM95.5961 5.47826C95.5293 6.40761 95.496 7.11685 95.496 7.60598C95.5126 8.09511 95.521 8.54348 95.521 8.95109C95.521 9.3587 95.5293 9.80707 95.546 10.2962C95.5627 10.7853 95.6044 11.4946 95.6712 12.4239H95.0955C94.9954 11.8207 94.7868 11.2745 94.4698 10.7853C94.1694 10.2962 93.7773 9.91304 93.2934 9.63587C92.8095 9.34239 92.2505 9.19565 91.6165 9.19565V8.70652C92.0837 8.70652 92.5092 8.6087 92.8929 8.41304C93.2767 8.21739 93.6104 7.95652 93.8941 7.63043C94.1944 7.30435 94.4364 6.95381 94.6199 6.57881C94.8202 6.20381 94.9537 5.83696 95.0204 5.47826H95.5961Z" fill="white"/>
</svg>
