<svg width="638" height="653" viewBox="0 0 638 653" fill="none" xmlns="http://www.w3.org/2000/svg">
<path d="M575.791 148.025C582.037 110.555 514.226 80.2217 487.904 69.962C470.951 63.2709 377.711 29.3692 369.234 65.5013C368.342 68.6238 367.896 71.7463 367.004 75.3149C362.543 69.5159 358.081 64.6091 354.958 61.9327C336.667 44.5357 309.9 30.2614 286.701 20.8938C260.826 10.6341 188.553 -17.9147 168.031 16.433C102.897 126.167 47.1308 241.255 1.62589 360.357C-3.72763 374.185 4.74878 387.567 18.1326 399.611C14.5636 416.116 10.9946 433.067 8.31779 450.018C4.74878 474.552 31.0703 498.64 65.8682 516.929C61.853 528.527 57.8379 539.679 54.2689 551.723C42.6696 588.747 117.173 622.203 142.156 632.016C166.693 641.83 242.088 671.271 260.826 636.477C274.656 610.605 288.932 584.732 302.762 558.86C325.068 563.321 346.482 562.875 359.42 550.831C371.911 557.522 384.849 563.321 398.233 568.227C418.755 575.365 491.027 599.899 503.073 567.781C547.685 450.464 591.852 333.146 636.464 215.828C646.279 189.51 607.02 163.638 576.237 148.025H575.791Z" fill="#E4DCCA"/>
</svg>
