<svg width="612" height="701" viewBox="0 0 612 701" fill="none" xmlns="http://www.w3.org/2000/svg">
<path d="M68.4727 608.988C56.8782 585.349 45.7296 561.264 38.5945 535.841C36.3648 527.366 28.3377 507.295 36.3647 500.605C38.1485 499.267 39.9323 497.483 41.2701 496.145C24.7702 464.477 -2.87832 418.983 0.24329 382.409C2.47301 357.878 20.3107 346.282 39.0404 333.347C42.608 330.671 46.1756 328.441 49.7431 325.765C48.8513 323.981 47.5133 321.751 46.6214 319.966C35.0268 296.327 23.8783 272.242 16.7432 246.819C14.0675 237.899 6.4865 219.166 14.5135 211.583C44.3918 182.146 80.9592 165.197 118.865 148.694C158.554 131.745 198.242 114.797 237.486 97.8478C268.702 65.7343 300.81 34.0668 336.04 5.52142C342.729 0.16916 357.445 18.9021 370.823 40.7571L393.12 31.3907C427.904 16.6719 464.026 -6.07514 502.823 1.50722C502.823 1.50722 506.836 1.95325 509.066 2.84529C520.214 5.96744 537.606 36.7429 542.066 43.8793C554.552 63.9502 565.701 84.9132 575.511 106.768C582.201 120.595 618.768 188.836 601.376 201.771C585.768 213.367 570.16 224.518 554.552 236.114C562.579 249.495 570.16 263.322 576.849 277.148C580.417 284.285 623.673 384.193 608.957 385.532C593.795 386.87 579.079 387.316 563.917 388.654C572.836 407.833 581.309 427.458 587.552 447.529C589.782 455.557 598.255 476.074 589.782 482.764C527.795 532.273 455.106 563.94 382.417 594.716C299.472 629.951 216.972 665.187 134.027 700.423C113.959 708.897 73.3781 621.477 67.5808 608.988H68.4727Z" fill="#B1BFAD"/>
</svg>
